<?xml version="1.0" encoding="UTF-8" standalone="no"?>
<!-- Created with Inkscape (http://www.inkscape.org/) -->

<svg
   width="210mm"
   height="297mm"
   viewBox="0 0 210 297"
   version="1.1"
   id="svg5"
   inkscape:version="1.1.1 (3bf5ae0d25, 2021-09-20)"
   sodipodi:docname="logos.svg"
   xmlns:inkscape="http://www.inkscape.org/namespaces/inkscape"
   xmlns:sodipodi="http://sodipodi.sourceforge.net/DTD/sodipodi-0.dtd"
   xmlns="http://www.w3.org/2000/svg"
   xmlns:svg="http://www.w3.org/2000/svg">
  <sodipodi:namedview
     id="namedview7"
     pagecolor="#ffffff"
     bordercolor="#666666"
     borderopacity="1.0"
     inkscape:pageshadow="2"
     inkscape:pageopacity="0.0"
     inkscape:pagecheckerboard="0"
     inkscape:document-units="mm"
     showgrid="false"
     inkscape:object-paths="true"
     inkscape:snap-page="true"
     inkscape:zoom="0.63177025"
     inkscape:cx="166.99109"
     inkscape:cy="1346.2172"
     inkscape:window-width="1920"
     inkscape:window-height="991"
     inkscape:window-x="-9"
     inkscape:window-y="-9"
     inkscape:window-maximized="1"
     inkscape:current-layer="g32566" />
  <defs
     id="defs2" />
  <g
     inkscape:label="Camada 1"
     inkscape:groupmode="layer"
     id="layer1">
    <text
       xml:space="preserve"
       style="font-size:61.736px;line-height:1.25;font-family:'Bell MT';-inkscape-font-specification:'Bell MT';stroke-width:0.264583"
       x="28.502085"
       y="57.004169"
       id="text1046"><tspan
         sodipodi:role="line"
         id="tspan1044"
         style="stroke-width:0.264583"
         x="28.502085"
         y="57.004169" /></text>
    <g
       id="g32566"
       transform="translate(7.4353268,4.5438108)">
      <g
         id="g47718"
         inkscape:export-filename="C:\Users\João Costa\g47718.png"
         inkscape:export-xdpi="200"
         inkscape:export-ydpi="200">
        <text
           xml:space="preserve"
           style="font-size:4.58611px;line-height:1.25;font-family:'Bell MT';-inkscape-font-specification:'Bell MT';fill:#000000;fill-opacity:1;stroke-width:0.264583"
           x="35.734959"
           y="83.053459"
           id="text1644"><tspan
             sodipodi:role="line"
             id="tspan1642"
             style="font-style:normal;font-variant:normal;font-weight:bold;font-stretch:normal;font-size:4.58611px;font-family:'Roboto Condensed';-inkscape-font-specification:'Roboto Condensed,  Bold';fill:#000000;fill-opacity:1;stroke-width:0.264583"
             x="35.734959"
             y="83.053459">UNDERWATER BLOCKCHAIN SIMULATOR</tspan></text>
        <g
           id="g24973"
           style="fill:#000000;fill-opacity:1"
           transform="translate(6.1961057,9.5006954)">
          <text
             xml:space="preserve"
             style="font-size:61.736px;line-height:1.25;font-family:'Bell MT';-inkscape-font-specification:'Bell MT';letter-spacing:-5.29167px;word-spacing:0px;fill:#000000;fill-opacity:1;stroke-width:0.264583"
             x="24.874866"
             y="60.721832"
             id="text4238"><tspan
               sodipodi:role="line"
               id="tspan4236"
               style="font-style:normal;font-variant:normal;font-weight:bold;font-stretch:normal;font-family:Antonio;-inkscape-font-specification:'Antonio Bold';fill:#000000;fill-opacity:1;stroke-width:0.264583"
               x="24.874866"
               y="60.721832"
               dx="0">U</tspan></text>
          <text
             xml:space="preserve"
             style="font-size:61.736px;line-height:1.25;font-family:'Bell MT';-inkscape-font-specification:'Bell MT';letter-spacing:-5.29167px;word-spacing:0px;fill:#000000;fill-opacity:1;stroke-width:0.264583"
             x="49.397995"
             y="60.721832"
             id="text13436"><tspan
               sodipodi:role="line"
               id="tspan13434"
               style="font-style:normal;font-variant:normal;font-weight:bold;font-stretch:normal;font-family:Antonio;-inkscape-font-specification:'Antonio Bold';fill:#000000;fill-opacity:1;stroke-width:0.264583"
               x="49.397995"
               y="60.721832">B</tspan></text>
          <text
             xml:space="preserve"
             style="font-size:61.736px;line-height:1.25;font-family:'Bell MT';-inkscape-font-specification:'Bell MT';letter-spacing:-5.29167px;word-spacing:0px;fill:#000000;fill-opacity:1;stroke-width:0.264583"
             x="75.063339"
             y="60.721832"
             id="text14220"><tspan
               sodipodi:role="line"
               id="tspan14218"
               style="font-style:normal;font-variant:normal;font-weight:bold;font-stretch:normal;font-family:Antonio;-inkscape-font-specification:'Antonio Bold';fill:#000000;fill-opacity:1;stroke-width:0.264583"
               x="75.063339"
               y="60.721832">S</tspan></text>
        </g>
        <g
           id="g19731"
           transform="matrix(1.4422664,0,0,1.4422664,-98.001189,-14.602689)">
          <g
             id="g19696"
             transform="matrix(0.94374281,0,0,0.94374281,9.1813363,0.14838818)">
            <rect
               style="fill:#00ced5;fill-opacity:1;stroke:none;stroke-width:0.264999;stroke-linecap:square;stroke-linejoin:bevel;stroke-miterlimit:4;stroke-dasharray:none;stroke-opacity:1"
               id="rect19690"
               width="17.160124"
               height="17.160124"
               x="154.80623"
               y="35.926727" />
            <path
               style="fill:#00b6bc;fill-opacity:1;stroke:none;stroke-width:0.264583px;stroke-linecap:butt;stroke-linejoin:miter;stroke-opacity:1"
               d="m 154.80623,35.926728 -4.43467,1.188265 v 17.160126 l 4.43467,-1.188268 z"
               id="path19692" />
            <path
               style="fill:#009ba0;fill-opacity:1;stroke:none;stroke-width:0.264583px;stroke-linecap:butt;stroke-linejoin:miter;stroke-opacity:1"
               d="m 154.80623,53.086851 -4.43467,1.188268 h 17.16012 l 4.43467,-1.188268 z"
               id="path19694" />
          </g>
          <g
             id="g19710"
             transform="matrix(-0.5248482,0.53057054,-0.53057054,-0.5248482,272.89378,-23.280521)">
            <path
               id="path15831"
               style="fill:#00ced5;fill-opacity:1;stroke:none;stroke-width:1.00157;stroke-linecap:square;stroke-linejoin:bevel;stroke-miterlimit:4;stroke-dasharray:none;stroke-opacity:1"
               d="m 519.88672,158.46484 a 101.47952,101.47952 0 0 0 50.74023,87.88282 101.47952,101.47952 0 0 0 101.48047,0 101.47952,101.47952 0 0 0 50.5332,-81.61133 95.624935,95.624935 0 0 1 -47.60742,76.54101 95.624935,95.624935 0 0 1 -95.625,0 95.624935,95.624935 0 0 1 -47.8125,-82.8125 z"
               transform="scale(0.26458333)" />
            <path
               id="path16112"
               style="fill:#00ced5;fill-opacity:1;stroke:none;stroke-width:0.264999;stroke-linecap:square;stroke-linejoin:bevel;stroke-miterlimit:4;stroke-dasharray:none;stroke-opacity:1"
               d="m 191.19866,41.927155 a 26.849789,26.849789 0 0 0 -13.42502,-23.252329 26.849789,26.849789 0 0 0 -26.85004,0 26.849789,26.849789 0 0 0 -13.37024,21.592998 25.300764,25.300764 0 0 1 12.59613,-20.251476 25.300764,25.300764 0 0 1 25.30078,0 25.300764,25.300764 0 0 1 12.65039,21.910807 z" />
          </g>
          <g
             id="g19688"
             transform="matrix(0.94374281,0,0,0.94374281,15.366578,-1.4214272)">
            <rect
               style="fill:#00ced5;fill-opacity:1;stroke:none;stroke-width:0.264999;stroke-linecap:square;stroke-linejoin:bevel;stroke-miterlimit:4;stroke-dasharray:none;stroke-opacity:1"
               id="rect16328"
               width="17.160124"
               height="17.160124"
               x="154.80623"
               y="35.926727" />
            <path
               style="fill:#00b6bc;fill-opacity:1;stroke:none;stroke-width:0.264583px;stroke-linecap:butt;stroke-linejoin:miter;stroke-opacity:1"
               d="m 154.80623,35.926728 -4.43467,1.188265 v 17.160126 l 4.43467,-1.188268 z"
               id="path16864" />
            <path
               style="fill:#009ba0;fill-opacity:1;stroke:none;stroke-width:0.264583px;stroke-linecap:butt;stroke-linejoin:miter;stroke-opacity:1"
               d="m 154.80623,53.086851 -4.43467,1.188268 h 17.16012 l 4.43467,-1.188268 z"
               id="path16868" />
          </g>
        </g>
        <rect
           style="fill:#00ced5;fill-opacity:1;stroke:none;stroke-width:0.264999;stroke-linecap:square;stroke-linejoin:bevel;stroke-miterlimit:4;stroke-dasharray:none;stroke-opacity:1"
           id="rect44272"
           width="28.708622"
           height="2.5817139"
           x="35.627609"
           y="74.185204" />
      </g>
      <g
         id="g47524"
         transform="translate(0,12.559751)"
         inkscape:export-filename="C:\Users\João Costa\g47524.png"
         inkscape:export-xdpi="200"
         inkscape:export-ydpi="200">
        <g
           id="g47397"
           style="fill:#000000;fill-opacity:1"
           transform="translate(6.1961057,90.408856)">
          <text
             xml:space="preserve"
             style="font-size:61.736px;line-height:1.25;font-family:'Bell MT';-inkscape-font-specification:'Bell MT';letter-spacing:-5.29167px;word-spacing:0px;fill:#000000;fill-opacity:1;stroke-width:0.264583"
             x="24.874866"
             y="60.721832"
             id="text47387"><tspan
               sodipodi:role="line"
               id="tspan47385"
               style="font-style:normal;font-variant:normal;font-weight:bold;font-stretch:normal;font-family:Antonio;-inkscape-font-specification:'Antonio Bold';fill:#000000;fill-opacity:1;stroke-width:0.264583"
               x="24.874866"
               y="60.721832"
               dx="0">U</tspan></text>
          <text
             xml:space="preserve"
             style="font-size:61.736px;line-height:1.25;font-family:'Bell MT';-inkscape-font-specification:'Bell MT';letter-spacing:-5.29167px;word-spacing:0px;fill:#000000;fill-opacity:1;stroke-width:0.264583"
             x="49.397995"
             y="60.721832"
             id="text47391"><tspan
               sodipodi:role="line"
               id="tspan47389"
               style="font-style:normal;font-variant:normal;font-weight:bold;font-stretch:normal;font-family:Antonio;-inkscape-font-specification:'Antonio Bold';fill:#000000;fill-opacity:1;stroke-width:0.264583"
               x="49.397995"
               y="60.721832">B</tspan></text>
          <text
             xml:space="preserve"
             style="font-size:61.736px;line-height:1.25;font-family:'Bell MT';-inkscape-font-specification:'Bell MT';letter-spacing:-5.29167px;word-spacing:0px;fill:#000000;fill-opacity:1;stroke-width:0.264583"
             x="75.063339"
             y="60.721832"
             id="text47395"><tspan
               sodipodi:role="line"
               id="tspan47393"
               style="font-style:normal;font-variant:normal;font-weight:bold;font-stretch:normal;font-family:Antonio;-inkscape-font-specification:'Antonio Bold';fill:#000000;fill-opacity:1;stroke-width:0.264583"
               x="75.063339"
               y="60.721832">S</tspan></text>
        </g>
        <g
           id="g47421"
           transform="matrix(1.4422664,0,0,1.4422664,-98.001189,63.968774)">
          <g
             id="g47405"
             transform="matrix(0.94374281,0,0,0.94374281,9.1813363,0.14838818)">
            <rect
               style="fill:#00ced5;fill-opacity:1;stroke:none;stroke-width:0.264999;stroke-linecap:square;stroke-linejoin:bevel;stroke-miterlimit:4;stroke-dasharray:none;stroke-opacity:1"
               id="rect47399"
               width="17.160124"
               height="17.160124"
               x="154.80623"
               y="35.926727" />
            <path
               style="fill:#00b6bc;fill-opacity:1;stroke:none;stroke-width:0.264583px;stroke-linecap:butt;stroke-linejoin:miter;stroke-opacity:1"
               d="m 154.80623,35.926728 -4.43467,1.188265 v 17.160126 l 4.43467,-1.188268 z"
               id="path47401" />
            <path
               style="fill:#009ba0;fill-opacity:1;stroke:none;stroke-width:0.264583px;stroke-linecap:butt;stroke-linejoin:miter;stroke-opacity:1"
               d="m 154.80623,53.086851 -4.43467,1.188268 h 17.16012 l 4.43467,-1.188268 z"
               id="path47403" />
          </g>
          <g
             id="g47411"
             transform="matrix(-0.5248482,0.53057054,-0.53057054,-0.5248482,272.89378,-23.280521)">
            <path
               id="path47407"
               style="fill:#00ced5;fill-opacity:1;stroke:none;stroke-width:1.00157;stroke-linecap:square;stroke-linejoin:bevel;stroke-miterlimit:4;stroke-dasharray:none;stroke-opacity:1"
               d="m 519.88672,158.46484 a 101.47952,101.47952 0 0 0 50.74023,87.88282 101.47952,101.47952 0 0 0 101.48047,0 101.47952,101.47952 0 0 0 50.5332,-81.61133 95.624935,95.624935 0 0 1 -47.60742,76.54101 95.624935,95.624935 0 0 1 -95.625,0 95.624935,95.624935 0 0 1 -47.8125,-82.8125 z"
               transform="scale(0.26458333)" />
            <path
               id="path47409"
               style="fill:#00ced5;fill-opacity:1;stroke:none;stroke-width:0.264999;stroke-linecap:square;stroke-linejoin:bevel;stroke-miterlimit:4;stroke-dasharray:none;stroke-opacity:1"
               d="m 191.19866,41.927155 a 26.849789,26.849789 0 0 0 -13.42502,-23.252329 26.849789,26.849789 0 0 0 -26.85004,0 26.849789,26.849789 0 0 0 -13.37024,21.592998 25.300764,25.300764 0 0 1 12.59613,-20.251476 25.300764,25.300764 0 0 1 25.30078,0 25.300764,25.300764 0 0 1 12.65039,21.910807 z" />
          </g>
          <g
             id="g47419"
             transform="matrix(0.94374281,0,0,0.94374281,15.366578,-1.4214272)">
            <rect
               style="fill:#00ced5;fill-opacity:1;stroke:none;stroke-width:0.264999;stroke-linecap:square;stroke-linejoin:bevel;stroke-miterlimit:4;stroke-dasharray:none;stroke-opacity:1"
               id="rect47413"
               width="17.160124"
               height="17.160124"
               x="154.80623"
               y="35.926727" />
            <path
               style="fill:#00b6bc;fill-opacity:1;stroke:none;stroke-width:0.264583px;stroke-linecap:butt;stroke-linejoin:miter;stroke-opacity:1"
               d="m 154.80623,35.926728 -4.43467,1.188265 v 17.160126 l 4.43467,-1.188268 z"
               id="path47415" />
            <path
               style="fill:#009ba0;fill-opacity:1;stroke:none;stroke-width:0.264583px;stroke-linecap:butt;stroke-linejoin:miter;stroke-opacity:1"
               d="m 154.80623,53.086851 -4.43467,1.188268 h 17.16012 l 4.43467,-1.188268 z"
               id="path47417" />
          </g>
        </g>
      </g>
      <rect
         style="fill:#000000;fill-opacity:1;stroke:none;stroke-width:0.396226;stroke-linecap:square;stroke-linejoin:bevel;stroke-miterlimit:4;stroke-dasharray:none;stroke-opacity:1"
         id="rect47548"
         width="210"
         height="263.6918"
         x="-231.91039"
         y="130.95081" />
      <g
         id="g47764"
         transform="translate(0,179.57042)"
         inkscape:export-filename="C:\Users\João Costa\g47764.png"
         inkscape:export-xdpi="200"
         inkscape:export-ydpi="200">
        <g
           id="g47998">
          <text
             xml:space="preserve"
             style="font-size:4.58611px;line-height:1.25;font-family:'Bell MT';-inkscape-font-specification:'Bell MT';fill:#ffffff;fill-opacity:1;stroke-width:0.264583"
             x="35.734959"
             y="83.053459"
             id="text47722"><tspan
               sodipodi:role="line"
               id="tspan47720"
               style="font-style:normal;font-variant:normal;font-weight:bold;font-stretch:normal;font-size:4.58611px;font-family:'Roboto Condensed';-inkscape-font-specification:'Roboto Condensed,  Bold';fill:#ffffff;fill-opacity:1;stroke-width:0.264583"
               x="35.734959"
               y="83.053459">UNDERWATER BLOCKCHAIN SIMULATOR</tspan></text>
          <g
             id="g47736"
             style="fill:#ffffff;fill-opacity:1"
             transform="translate(6.1961057,9.5006954)">
            <text
               xml:space="preserve"
               style="font-size:61.736px;line-height:1.25;font-family:'Bell MT';-inkscape-font-specification:'Bell MT';letter-spacing:-5.29167px;word-spacing:0px;fill:#ffffff;fill-opacity:1;stroke-width:0.264583"
               x="24.874866"
               y="60.721832"
               id="text47726"><tspan
                 sodipodi:role="line"
                 id="tspan47724"
                 style="font-style:normal;font-variant:normal;font-weight:bold;font-stretch:normal;font-family:Antonio;-inkscape-font-specification:'Antonio Bold';fill:#ffffff;fill-opacity:1;stroke-width:0.264583"
                 x="24.874866"
                 y="60.721832"
                 dx="0">U</tspan></text>
            <text
               xml:space="preserve"
               style="font-size:61.736px;line-height:1.25;font-family:'Bell MT';-inkscape-font-specification:'Bell MT';letter-spacing:-5.29167px;word-spacing:0px;fill:#ffffff;fill-opacity:1;stroke-width:0.264583"
               x="49.397995"
               y="60.721832"
               id="text47730"><tspan
                 sodipodi:role="line"
                 id="tspan47728"
                 style="font-style:normal;font-variant:normal;font-weight:bold;font-stretch:normal;font-family:Antonio;-inkscape-font-specification:'Antonio Bold';fill:#ffffff;fill-opacity:1;stroke-width:0.264583"
                 x="49.397995"
                 y="60.721832">B</tspan></text>
            <text
               xml:space="preserve"
               style="font-size:61.736px;line-height:1.25;font-family:'Bell MT';-inkscape-font-specification:'Bell MT';letter-spacing:-5.29167px;word-spacing:0px;fill:#ffffff;fill-opacity:1;stroke-width:0.264583"
               x="75.063339"
               y="60.721832"
               id="text47734"><tspan
                 sodipodi:role="line"
                 id="tspan47732"
                 style="font-style:normal;font-variant:normal;font-weight:bold;font-stretch:normal;font-family:Antonio;-inkscape-font-specification:'Antonio Bold';fill:#ffffff;fill-opacity:1;stroke-width:0.264583"
                 x="75.063339"
                 y="60.721832">S</tspan></text>
          </g>
          <g
             id="g47760"
             transform="matrix(1.4422664,0,0,1.4422664,-98.001189,-14.602689)">
            <g
               id="g47744"
               transform="matrix(0.94374281,0,0,0.94374281,9.1813363,0.14838818)">
              <rect
                 style="fill:#00ced5;fill-opacity:1;stroke:none;stroke-width:0.264999;stroke-linecap:square;stroke-linejoin:bevel;stroke-miterlimit:4;stroke-dasharray:none;stroke-opacity:1"
                 id="rect47738"
                 width="17.160124"
                 height="17.160124"
                 x="154.80623"
                 y="35.926727" />
              <path
                 style="fill:#00b6bc;fill-opacity:1;stroke:none;stroke-width:0.264583px;stroke-linecap:butt;stroke-linejoin:miter;stroke-opacity:1"
                 d="m 154.80623,35.926728 -4.43467,1.188265 v 17.160126 l 4.43467,-1.188268 z"
                 id="path47740" />
              <path
                 style="fill:#009ba0;fill-opacity:1;stroke:none;stroke-width:0.264583px;stroke-linecap:butt;stroke-linejoin:miter;stroke-opacity:1"
                 d="m 154.80623,53.086851 -4.43467,1.188268 h 17.16012 l 4.43467,-1.188268 z"
                 id="path47742" />
            </g>
            <g
               id="g47750"
               transform="matrix(-0.5248482,0.53057054,-0.53057054,-0.5248482,272.89378,-23.280521)">
              <path
                 id="path47746"
                 style="fill:#00ced5;fill-opacity:1;stroke:none;stroke-width:1.00157;stroke-linecap:square;stroke-linejoin:bevel;stroke-miterlimit:4;stroke-dasharray:none;stroke-opacity:1"
                 d="m 519.88672,158.46484 a 101.47952,101.47952 0 0 0 50.74023,87.88282 101.47952,101.47952 0 0 0 101.48047,0 101.47952,101.47952 0 0 0 50.5332,-81.61133 95.624935,95.624935 0 0 1 -47.60742,76.54101 95.624935,95.624935 0 0 1 -95.625,0 95.624935,95.624935 0 0 1 -47.8125,-82.8125 z"
                 transform="scale(0.26458333)" />
              <path
                 id="path47748"
                 style="fill:#00ced5;fill-opacity:1;stroke:none;stroke-width:0.264999;stroke-linecap:square;stroke-linejoin:bevel;stroke-miterlimit:4;stroke-dasharray:none;stroke-opacity:1"
                 d="m 191.19866,41.927155 a 26.849789,26.849789 0 0 0 -13.42502,-23.252329 26.849789,26.849789 0 0 0 -26.85004,0 26.849789,26.849789 0 0 0 -13.37024,21.592998 25.300764,25.300764 0 0 1 12.59613,-20.251476 25.300764,25.300764 0 0 1 25.30078,0 25.300764,25.300764 0 0 1 12.65039,21.910807 z" />
            </g>
            <g
               id="g47758"
               transform="matrix(0.94374281,0,0,0.94374281,15.366578,-1.4214272)">
              <rect
                 style="fill:#00ced5;fill-opacity:1;stroke:none;stroke-width:0.264999;stroke-linecap:square;stroke-linejoin:bevel;stroke-miterlimit:4;stroke-dasharray:none;stroke-opacity:1"
                 id="rect47752"
                 width="17.160124"
                 height="17.160124"
                 x="154.80623"
                 y="35.926727" />
              <path
                 style="fill:#00b6bc;fill-opacity:1;stroke:none;stroke-width:0.264583px;stroke-linecap:butt;stroke-linejoin:miter;stroke-opacity:1"
                 d="m 154.80623,35.926728 -4.43467,1.188265 v 17.160126 l 4.43467,-1.188268 z"
                 id="path47754" />
              <path
                 style="fill:#009ba0;fill-opacity:1;stroke:none;stroke-width:0.264583px;stroke-linecap:butt;stroke-linejoin:miter;stroke-opacity:1"
                 d="m 154.80623,53.086851 -4.43467,1.188268 h 17.16012 l 4.43467,-1.188268 z"
                 id="path47756" />
            </g>
          </g>
          <rect
             style="fill:#00ced5;fill-opacity:1;stroke:none;stroke-width:0.264999;stroke-linecap:square;stroke-linejoin:bevel;stroke-miterlimit:4;stroke-dasharray:none;stroke-opacity:1"
             id="rect47762"
             width="28.708622"
             height="2.5817139"
             x="35.627609"
             y="74.185204" />
        </g>
      </g>
      <g
         id="g48421"
         inkscape:export-filename="C:\Users\João Costa\g48421.png"
         inkscape:export-xdpi="200"
         inkscape:export-ydpi="200">
        <g
           id="g48140"
           style="fill:#ffffff;fill-opacity:1"
           transform="translate(6.1961057,292.68354)">
          <text
             xml:space="preserve"
             style="font-size:61.736px;line-height:1.25;font-family:'Bell MT';-inkscape-font-specification:'Bell MT';letter-spacing:-5.29167px;word-spacing:0px;fill:#ffffff;fill-opacity:1;stroke-width:0.264583"
             x="24.874866"
             y="60.721832"
             id="text48130"><tspan
               sodipodi:role="line"
               id="tspan48128"
               style="font-style:normal;font-variant:normal;font-weight:bold;font-stretch:normal;font-family:Antonio;-inkscape-font-specification:'Antonio Bold';fill:#ffffff;fill-opacity:1;stroke-width:0.264583"
               x="24.874866"
               y="60.721832"
               dx="0">U</tspan></text>
          <text
             xml:space="preserve"
             style="font-size:61.736px;line-height:1.25;font-family:'Bell MT';-inkscape-font-specification:'Bell MT';letter-spacing:-5.29167px;word-spacing:0px;fill:#ffffff;fill-opacity:1;stroke-width:0.264583"
             x="49.397995"
             y="60.721832"
             id="text48134"><tspan
               sodipodi:role="line"
               id="tspan48132"
               style="font-style:normal;font-variant:normal;font-weight:bold;font-stretch:normal;font-family:Antonio;-inkscape-font-specification:'Antonio Bold';fill:#ffffff;fill-opacity:1;stroke-width:0.264583"
               x="49.397995"
               y="60.721832">B</tspan></text>
          <text
             xml:space="preserve"
             style="font-size:61.736px;line-height:1.25;font-family:'Bell MT';-inkscape-font-specification:'Bell MT';letter-spacing:-5.29167px;word-spacing:0px;fill:#ffffff;fill-opacity:1;stroke-width:0.264583"
             x="75.063339"
             y="60.721832"
             id="text48138"><tspan
               sodipodi:role="line"
               id="tspan48136"
               style="font-style:normal;font-variant:normal;font-weight:bold;font-stretch:normal;font-family:Antonio;-inkscape-font-specification:'Antonio Bold';fill:#ffffff;fill-opacity:1;stroke-width:0.264583"
               x="75.063339"
               y="60.721832">S</tspan></text>
        </g>
        <g
           id="g48164"
           transform="matrix(1.4422664,0,0,1.4422664,-98.001189,266.24345)">
          <g
             id="g48148"
             transform="matrix(0.94374281,0,0,0.94374281,9.1813363,0.14838818)">
            <rect
               style="fill:#00ced5;fill-opacity:1;stroke:none;stroke-width:0.264999;stroke-linecap:square;stroke-linejoin:bevel;stroke-miterlimit:4;stroke-dasharray:none;stroke-opacity:1"
               id="rect48142"
               width="17.160124"
               height="17.160124"
               x="154.80623"
               y="35.926727" />
            <path
               style="fill:#00b6bc;fill-opacity:1;stroke:none;stroke-width:0.264583px;stroke-linecap:butt;stroke-linejoin:miter;stroke-opacity:1"
               d="m 154.80623,35.926728 -4.43467,1.188265 v 17.160126 l 4.43467,-1.188268 z"
               id="path48144" />
            <path
               style="fill:#009ba0;fill-opacity:1;stroke:none;stroke-width:0.264583px;stroke-linecap:butt;stroke-linejoin:miter;stroke-opacity:1"
               d="m 154.80623,53.086851 -4.43467,1.188268 h 17.16012 l 4.43467,-1.188268 z"
               id="path48146" />
          </g>
          <g
             id="g48154"
             transform="matrix(-0.5248482,0.53057054,-0.53057054,-0.5248482,272.89378,-23.280521)">
            <path
               id="path48150"
               style="fill:#00ced5;fill-opacity:1;stroke:none;stroke-width:1.00157;stroke-linecap:square;stroke-linejoin:bevel;stroke-miterlimit:4;stroke-dasharray:none;stroke-opacity:1"
               d="m 519.88672,158.46484 a 101.47952,101.47952 0 0 0 50.74023,87.88282 101.47952,101.47952 0 0 0 101.48047,0 101.47952,101.47952 0 0 0 50.5332,-81.61133 95.624935,95.624935 0 0 1 -47.60742,76.54101 95.624935,95.624935 0 0 1 -95.625,0 95.624935,95.624935 0 0 1 -47.8125,-82.8125 z"
               transform="scale(0.26458333)" />
            <path
               id="path48152"
               style="fill:#00ced5;fill-opacity:1;stroke:none;stroke-width:0.264999;stroke-linecap:square;stroke-linejoin:bevel;stroke-miterlimit:4;stroke-dasharray:none;stroke-opacity:1"
               d="m 191.19866,41.927155 a 26.849789,26.849789 0 0 0 -13.42502,-23.252329 26.849789,26.849789 0 0 0 -26.85004,0 26.849789,26.849789 0 0 0 -13.37024,21.592998 25.300764,25.300764 0 0 1 12.59613,-20.251476 25.300764,25.300764 0 0 1 25.30078,0 25.300764,25.300764 0 0 1 12.65039,21.910807 z" />
          </g>
          <g
             id="g48162"
             transform="matrix(0.94374281,0,0,0.94374281,15.366578,-1.4214272)">
            <rect
               style="fill:#00ced5;fill-opacity:1;stroke:none;stroke-width:0.264999;stroke-linecap:square;stroke-linejoin:bevel;stroke-miterlimit:4;stroke-dasharray:none;stroke-opacity:1"
               id="rect48156"
               width="17.160124"
               height="17.160124"
               x="154.80623"
               y="35.926727" />
            <path
               style="fill:#00b6bc;fill-opacity:1;stroke:none;stroke-width:0.264583px;stroke-linecap:butt;stroke-linejoin:miter;stroke-opacity:1"
               d="m 154.80623,35.926728 -4.43467,1.188265 v 17.160126 l 4.43467,-1.188268 z"
               id="path48158" />
            <path
               style="fill:#009ba0;fill-opacity:1;stroke:none;stroke-width:0.264583px;stroke-linecap:butt;stroke-linejoin:miter;stroke-opacity:1"
               d="m 154.80623,53.086851 -4.43467,1.188268 h 17.16012 l 4.43467,-1.188268 z"
               id="path48160" />
          </g>
        </g>
      </g>
      <g
         id="g48400"
         transform="matrix(1.4422664,0,0,1.4422664,-98.001189,343.72085)"
         inkscape:export-filename="C:\Users\João Costa\g48400.png"
         inkscape:export-xdpi="200"
         inkscape:export-ydpi="200">
        <g
           id="g48384"
           transform="matrix(0.94374281,0,0,0.94374281,9.1813363,0.14838818)">
          <rect
             style="fill:#00ced5;fill-opacity:1;stroke:none;stroke-width:0.264999;stroke-linecap:square;stroke-linejoin:bevel;stroke-miterlimit:4;stroke-dasharray:none;stroke-opacity:1"
             id="rect48378"
             width="17.160124"
             height="17.160124"
             x="154.80623"
             y="35.926727" />
          <path
             style="fill:#00b6bc;fill-opacity:1;stroke:none;stroke-width:0.264583px;stroke-linecap:butt;stroke-linejoin:miter;stroke-opacity:1"
             d="m 154.80623,35.926728 -4.43467,1.188265 v 17.160126 l 4.43467,-1.188268 z"
             id="path48380" />
          <path
             style="fill:#009ba0;fill-opacity:1;stroke:none;stroke-width:0.264583px;stroke-linecap:butt;stroke-linejoin:miter;stroke-opacity:1"
             d="m 154.80623,53.086851 -4.43467,1.188268 h 17.16012 l 4.43467,-1.188268 z"
             id="path48382" />
        </g>
        <g
           id="g48390"
           transform="matrix(-0.5248482,0.53057054,-0.53057054,-0.5248482,272.89378,-23.280521)">
          <path
             id="path48386"
             style="fill:#00ced5;fill-opacity:1;stroke:none;stroke-width:1.00157;stroke-linecap:square;stroke-linejoin:bevel;stroke-miterlimit:4;stroke-dasharray:none;stroke-opacity:1"
             d="m 519.88672,158.46484 a 101.47952,101.47952 0 0 0 50.74023,87.88282 101.47952,101.47952 0 0 0 101.48047,0 101.47952,101.47952 0 0 0 50.5332,-81.61133 95.624935,95.624935 0 0 1 -47.60742,76.54101 95.624935,95.624935 0 0 1 -95.625,0 95.624935,95.624935 0 0 1 -47.8125,-82.8125 z"
             transform="scale(0.26458333)" />
          <path
             id="path48388"
             style="fill:#00ced5;fill-opacity:1;stroke:none;stroke-width:0.264999;stroke-linecap:square;stroke-linejoin:bevel;stroke-miterlimit:4;stroke-dasharray:none;stroke-opacity:1"
             d="m 191.19866,41.927155 a 26.849789,26.849789 0 0 0 -13.42502,-23.252329 26.849789,26.849789 0 0 0 -26.85004,0 26.849789,26.849789 0 0 0 -13.37024,21.592998 25.300764,25.300764 0 0 1 12.59613,-20.251476 25.300764,25.300764 0 0 1 25.30078,0 25.300764,25.300764 0 0 1 12.65039,21.910807 z" />
        </g>
        <g
           id="g48398"
           transform="matrix(0.94374281,0,0,0.94374281,15.366578,-1.4214272)">
          <rect
             style="fill:#00ced5;fill-opacity:1;stroke:none;stroke-width:0.264999;stroke-linecap:square;stroke-linejoin:bevel;stroke-miterlimit:4;stroke-dasharray:none;stroke-opacity:1"
             id="rect48392"
             width="17.160124"
             height="17.160124"
             x="154.80623"
             y="35.926727" />
          <path
             style="fill:#00b6bc;fill-opacity:1;stroke:none;stroke-width:0.264583px;stroke-linecap:butt;stroke-linejoin:miter;stroke-opacity:1"
             d="m 154.80623,35.926728 -4.43467,1.188265 v 17.160126 l 4.43467,-1.188268 z"
             id="path48394" />
          <path
             style="fill:#009ba0;fill-opacity:1;stroke:none;stroke-width:0.264583px;stroke-linecap:butt;stroke-linejoin:miter;stroke-opacity:1"
             d="m 154.80623,53.086851 -4.43467,1.188268 h 17.16012 l 4.43467,-1.188268 z"
             id="path48396" />
        </g>
      </g>
    </g>
  </g>
</svg>
