<?xml version="1.0" encoding="UTF-8" standalone="no"?>
<!-- Created with Inkscape (http://www.inkscape.org/) -->

<svg
   width="100mm"
   height="100mm"
   viewBox="0 0 100 100"
   version="1.1"
   id="svg4100"
   inkscape:version="1.1.1 (3bf5ae0d25, 2021-09-20)"
   sodipodi:docname="node.svg"
   xmlns:inkscape="http://www.inkscape.org/namespaces/inkscape"
   xmlns:sodipodi="http://sodipodi.sourceforge.net/DTD/sodipodi-0.dtd"
   xmlns="http://www.w3.org/2000/svg"
   xmlns:svg="http://www.w3.org/2000/svg">
  <sodipodi:namedview
     id="namedview4102"
     pagecolor="#ffffff"
     bordercolor="#666666"
     borderopacity="1.0"
     inkscape:pageshadow="2"
     inkscape:pageopacity="0.0"
     inkscape:pagecheckerboard="0"
     inkscape:document-units="mm"
     showgrid="false"
     inkscape:snap-page="true"
     inkscape:zoom="0.64052329"
     inkscape:cx="3.9030587"
     inkscape:cy="377.03547"
     inkscape:window-width="1920"
     inkscape:window-height="991"
     inkscape:window-x="-9"
     inkscape:window-y="-9"
     inkscape:window-maximized="1"
     inkscape:current-layer="layer1" />
  <defs
     id="defs4097" />
  <g
     inkscape:label="Camada 1"
     inkscape:groupmode="layer"
     id="layer1">
    <path
       id="path4183"
       style="fill:#f6f6f6;stroke-width:1.00157;stroke-linecap:round;stroke-linejoin:round;paint-order:markers fill stroke;fill-opacity:1"
       d="M 188.97656 0 A 188.97638 188.97638 0 0 0 0 188.97656 A 188.97638 188.97638 0 0 0 188.97656 377.95312 A 188.97638 188.97638 0 0 0 377.95312 188.97656 A 188.97638 188.97638 0 0 0 188.97656 0 z M 188.97656 37.46875 A 151.50701 151.50701 0 0 1 340.48242 188.97656 A 151.50701 151.50701 0 0 1 188.97656 340.48242 A 151.50701 151.50701 0 0 1 37.46875 188.97656 A 151.50701 151.50701 0 0 1 188.97656 37.46875 z "
       transform="scale(0.26458333)" />
    <path
       id="circle4267"
       style="fill:#f6f6f6;stroke-width:0.111749;stroke-linecap:round;stroke-linejoin:round;paint-order:markers fill stroke;fill-opacity:1"
       d="M 71.084841,50 A 21.084841,21.084841 0 0 1 50,71.084841 21.084841,21.084841 0 0 1 28.915159,50 21.084841,21.084841 0 0 1 50,28.915159 21.084841,21.084841 0 0 1 71.084841,50 Z" />
  </g>
</svg>
