<?xml version="1.0" encoding="UTF-8" standalone="no"?>
<!-- Created with Inkscape (http://www.inkscape.org/) -->

<svg
   width="100mm"
   height="100mm"
   viewBox="0 0 100 100"
   version="1.1"
   id="svg5"
   inkscape:version="1.1.1 (3bf5ae0d25, 2021-09-20)"
   sodipodi:docname="restart.svg"
   xmlns:inkscape="http://www.inkscape.org/namespaces/inkscape"
   xmlns:sodipodi="http://sodipodi.sourceforge.net/DTD/sodipodi-0.dtd"
   xmlns="http://www.w3.org/2000/svg"
   xmlns:svg="http://www.w3.org/2000/svg">
  <sodipodi:namedview
     id="namedview7"
     pagecolor="#ffffff"
     bordercolor="#666666"
     borderopacity="1.0"
     inkscape:pageshadow="2"
     inkscape:pageopacity="0.0"
     inkscape:pagecheckerboard="0"
     inkscape:document-units="mm"
     showgrid="false"
     inkscape:snap-page="true"
     inkscape:object-paths="true"
     inkscape:zoom="0.45291836"
     inkscape:cx="-508.92174"
     inkscape:cy="67.341054"
     inkscape:window-width="1920"
     inkscape:window-height="991"
     inkscape:window-x="-9"
     inkscape:window-y="-9"
     inkscape:window-maximized="1"
     inkscape:current-layer="layer1"
     inkscape:snap-global="false" />
  <defs
     id="defs2" />
  <g
     inkscape:label="Camada 1"
     inkscape:groupmode="layer"
     id="layer1">
    <path
       id="path7189"
       style="fill:#faf100;fill-opacity:1;stroke:none;stroke-width:1.00157;stroke-linecap:round;stroke-linejoin:round;stroke-opacity:1;paint-order:markers fill stroke"
       d="M 55.349609 55.349609 A 188.97638 188.97638 0 0 0 14.384766 261.29492 A 188.97638 188.97638 0 0 0 188.97656 377.95312 A 188.97638 188.97638 0 0 0 363.56836 261.29492 A 188.97638 188.97638 0 0 0 322.60352 55.349609 L 285.125 92.828125 A 135.98669 135.98669 0 0 1 324.96289 188.97656 A 135.98669 135.98669 0 0 1 188.97656 324.96289 A 135.98669 135.98669 0 0 1 52.990234 188.97656 A 135.98669 135.98669 0 0 1 92.886719 92.886719 L 55.349609 55.349609 z "
       transform="scale(0.26458333)" />
    <path
       style="fill:#faf100;fill-opacity:1;stroke:none;stroke-width:0.264583px;stroke-linecap:butt;stroke-linejoin:miter;stroke-opacity:1"
       d="M 34.612336,4.527352 0,13.801699 31.691464,38.117383 Z"
       id="path7325"
       sodipodi:nodetypes="cccc" />
  </g>
</svg>
